<svg width="45" height="45" viewBox="0 0 45 45" fill="none" xmlns="http://www.w3.org/2000/svg">
<circle cx="22.5" cy="22.5" r="22.5" fill="#58BEBF" fill-opacity="0.2"/>
<path fill-rule="evenodd" clip-rule="evenodd" d="M19.6025 32.7964V28.5415H25.8751V32.7964H30.6022V9.87805H14.8746V32.7964H19.6025ZM25.8751 11.9835H28.5207V14.6584H25.8751V11.9835ZM28.5207 15.8722H25.8751V18.5479H28.5207V15.8722ZM25.8751 19.7616H28.5207V22.4359H25.8751V19.7616ZM28.5207 23.6496H25.8751V26.3261H28.5207V23.6496ZM21.4163 11.9835H24.0627V14.6584H21.4163V11.9835ZM24.0627 15.8722H21.4163V18.5479H24.0627V15.8722ZM21.4163 19.7616H24.0627V22.4359H21.4163V19.7616ZM24.0627 23.6496H21.4163V26.3261H24.0627V23.6496ZM16.9576 11.9835H19.6032V14.6584H16.9576V11.9835ZM19.6032 15.8722H16.9576V18.5479H19.6032V15.8722ZM16.9576 19.7616H19.6032V22.4359H16.9576V19.7616ZM19.6032 23.6496H16.9576V26.3261H19.6032V23.6496Z" fill="#58BEBF"/>
</svg>
